<svg xmlns="http://www.w3.org/2000/svg" viewBox="0 0 32 32" fill="none">
  <rect width="32" height="32" rx="6" fill="#2563eb"/>
  <path d="M8 6h16a2 2 0 0 1 2 2v16a2 2 0 0 1-2 2H8a2 2 0 0 1-2-2V8a2 2 0 0 1 2-2z" fill="#3b82f6"/>
  <rect x="10" y="10" width="12" height="2" rx="1" fill="white"/>
  <rect x="10" y="14" width="10" height="2" rx="1" fill="white" opacity="0.8"/>
  <rect x="10" y="18" width="8" height="2" rx="1" fill="white" opacity="0.6"/>
  <rect x="10" y="22" width="6" height="2" rx="1" fill="white" opacity="0.4"/>
  <circle cx="23" cy="23" r="4" fill="#10b981"/>
  <path d="M21 23l1.5 1.5 3.5-3.5" stroke="white" stroke-width="1.5" stroke-linecap="round" stroke-linejoin="round"/>
</svg>